<?xml version="1.0" encoding="UTF-8" standalone="no"?>
<!-- Created with Inkscape (http://www.inkscape.org/) -->

<svg
   width="232"
   height="135"
   viewBox="0 0 61.383332 35.71875"
   version="1.1"
   id="svg5"
   inkscape:version="1.2.2 (732a01da63, 2022-12-09)"
   sodipodi:docname="signature.svg"
   xmlns:inkscape="http://www.inkscape.org/namespaces/inkscape"
   xmlns:sodipodi="http://sodipodi.sourceforge.net/DTD/sodipodi-0.dtd"
   xmlns="http://www.w3.org/2000/svg"
   xmlns:svg="http://www.w3.org/2000/svg">
  <sodipodi:namedview
     id="namedview7"
     pagecolor="#505050"
     bordercolor="#eeeeee"
     borderopacity="1"
     inkscape:showpageshadow="false"
     inkscape:pageopacity="0"
     inkscape:pagecheckerboard="true"
     inkscape:deskcolor="#505050"
     inkscape:document-units="px"
     showgrid="false"
     showborder="true"
     borderlayer="true"
     inkscape:zoom="1"
     inkscape:cx="115.5"
     inkscape:cy="166"
     inkscape:window-width="1366"
     inkscape:window-height="715"
     inkscape:window-x="-8"
     inkscape:window-y="-8"
     inkscape:window-maximized="1"
     inkscape:current-layer="svg5" />
  <defs
     id="defs2" />
  <g
     inkscape:groupmode="layer"
     id="layer2"
     inkscape:label="texture">
    <path
       id="path1291"
       style="fill:#ffffff;fill-opacity:1;stroke-width:0.997445;stroke-linecap:round;paint-order:fill markers stroke"
       d="M 60.87742 0.00051676432 C 60.805972 0.0030277462 60.729244 0.020370236 60.649011 0.056844075 C 60.332893 0.20100293 60.016864 0.34521595 59.700748 0.48937581 C 57.538908 1.293386 55.366237 2.0696913 53.229309 2.9393554 C 48.786601 4.7474006 44.425003 6.7556278 40.215633 9.0609455 C 38.419005 10.112505 36.583356 11.100883 34.825264 12.215792 C 32.163063 13.904047 29.563425 15.694362 27.108423 17.649568 C 27.10733 17.610332 27.104539 17.570974 27.103772 17.531746 C 26.901738 16.822152 26.790557 16.080273 26.497607 15.403194 C 25.983491 14.214937 25.147233 13.03305 23.890531 12.520166 C 21.910941 11.712255 20.049841 12.999496 18.399394 13.887007 C 13.496231 16.83251 19.279994 13.322557 14.607894 16.26619 C 13.874652 16.728165 11.613074 18.225249 10.592635 18.014404 C 10.296575 17.953234 10.087781 17.680485 9.8355753 17.513659 C 9.6535064 17.113885 9.4372632 16.728423 9.2893554 16.314766 C 9.197071 16.056671 9.1177661 15.794846 9.0469929 15.531352 C 11.46749 13.901955 13.968877 12.388175 16.452226 10.863936 C 17.053192 10.495051 16.532298 9.6439425 15.931327 10.012825 C 13.54863 11.475458 11.147787 12.928663 8.8180663 14.482837 C 8.5284526 12.806096 8.5642681 11.061996 8.6160115 9.3787556 C 8.6853414 8.6765443 7.6931489 8.5783661 7.623824 9.2805704 C 7.5557674 11.201172 7.5284883 13.190284 7.9209635 15.088485 C 6.3543562 16.16158 4.8261206 17.28802 3.3636189 18.502746 C 2.8727244 19.009189 3.5879252 19.703721 4.0788208 19.197278 C 5.400542 18.110439 6.7746728 17.094337 8.1803791 16.12253 C 8.2264098 16.275405 8.2752855 16.427677 8.3281737 16.578833 C 8.4902326 17.042 8.72707 17.475173 8.9265868 17.923454 C 9.2805435 18.218381 9.5543409 18.654974 9.9885375 18.808671 C 11.712028 19.418755 13.775874 17.962874 15.118974 17.122986 C 20.625245 13.679716 13.294912 18.114821 18.91254 14.742769 C 20.326801 14.02453 22.045528 12.667744 23.735502 13.505635 C 24.628065 13.948168 25.296177 15.047691 25.639262 15.911173 C 25.87962 16.516116 25.974779 17.168892 26.14259 17.79788 C 26.143834 18.004232 26.150102 18.210871 26.157576 18.41748 C 22.824439 21.177765 19.793903 24.274714 17.299202 27.892871 C 16.553945 28.973744 15.97661 30.161461 15.315344 31.295764 C 15.032853 32.202429 14.497063 33.06673 14.467851 34.016011 C 14.424121 35.436882 15.372163 35.901669 16.511137 35.656738 C 17.099059 35.530308 17.634936 35.21408 18.15238 34.90743 C 19.734402 33.969882 20.435613 33.177027 21.790918 31.920015 C 22.327643 31.268428 22.908062 30.650357 23.401155 29.965096 C 25.448206 27.12029 26.883486 23.587988 27.153381 20.073193 C 27.183838 19.676557 27.177201 19.278984 27.161133 18.881018 C 29.754787 16.765937 32.529615 14.850818 35.387504 13.040031 C 37.12643 11.93823 38.941434 10.961535 40.718444 9.9223917 C 44.890328 7.6393149 49.213218 5.6507679 53.615848 3.8597127 C 55.739875 2.9956256 57.899332 2.2238304 60.048014 1.4247192 C 60.385804 1.2716154 60.723595 1.1189363 61.061388 0.96583251 C 61.623026 0.71051564 61.377559 -0.017060109 60.87742 0.00051676432 z M 5.0808268 1.5725138 C 4.776716 1.5711355 4.4750261 1.8440621 4.6059204 2.2536092 C 4.9090591 3.2020702 5.2120532 4.1509581 5.5278279 5.0952962 C 5.7727867 5.7569585 6.7076143 5.4102097 6.4626546 4.7485473 C 6.1528549 3.8180812 5.8542829 2.8838828 5.5557332 1.9497518 C 5.4718266 1.6872216 5.2757695 1.5733974 5.0808268 1.5725138 z M 12.015287 1.6241902 C 11.872546 1.6231577 11.722465 1.6875962 11.600842 1.8443318 C 11.479104 2.0012927 11.357744 2.1581423 11.236007 2.3151041 C 10.498301 3.2204792 9.7555673 4.1291839 8.9038492 4.9309651 C 8.3700937 5.3919277 9.0212168 6.1479519 9.5549722 5.6869913 C 10.453377 4.8498961 11.233995 3.8961684 12.008569 2.9460734 C 12.13526 2.7828845 12.261701 2.6193706 12.388391 2.4561808 C 12.699204 2.0556348 12.38007 1.626829 12.015287 1.6241902 z M 0.48885904 5.7179972 C 0.080422962 5.7234913 -0.21734422 6.2676609 0.20515543 6.6213012 C 0.8426642 7.1516917 1.5018525 7.6430209 2.2370727 8.0325845 C 2.8609581 8.3611422 3.3250125 7.477992 2.7011271 7.1494343 C 2.0296368 6.7908447 1.4247032 6.3450548 0.84439289 5.8559732 C 0.72609299 5.7569537 0.60322115 5.7164588 0.48885904 5.7179972 z M 53.630834 6.7287882 C 53.38159 6.7287882 53.132157 6.9051392 53.132157 7.2579548 C 53.125157 8.7654303 53.111565 10.272741 53.159545 11.779643 C 53.259621 12.38269 53.169219 13.957582 53.505777 14.486454 C 53.590487 14.619544 53.71862 14.719444 53.825138 14.835787 C 54.083282 14.811757 54.355496 14.85039 54.599767 14.76344 C 54.881475 14.663169 55.425381 13.962337 55.54958 13.797607 C 56.215608 12.914228 56.783776 11.954834 57.36239 11.013798 C 57.538428 10.706331 57.714484 10.398841 57.890523 10.091374 C 58.240908 9.4790689 57.375843 8.9829765 57.025459 9.5952798 L 56.513346 10.490832 C 55.957603 11.39515 55.407477 12.307271 54.779085 13.164054 C 54.656814 13.330763 54.526437 13.492086 54.390995 13.648262 C 54.367937 13.674847 54.333949 13.696339 54.299527 13.717509 C 54.224587 13.30853 54.221664 12.790927 54.203409 12.527917 C 54.185359 12.267958 54.171657 12.007708 54.155867 11.747603 C 54.107707 10.251366 54.123182 8.7547653 54.129512 7.2579548 C 54.129512 6.9051392 53.880079 6.7287882 53.630834 6.7287882 z M 49.122066 11.321273 C 48.888415 11.324075 48.656401 11.482404 48.63114 11.812199 C 48.53981 13.715608 48.496604 15.621654 48.523653 17.527095 C 48.549343 18.498133 48.805353 19.553984 50.078596 19.093408 C 50.520874 18.933423 51.036965 18.377458 51.353971 18.079 C 51.927435 17.508988 52.421528 16.871357 52.904264 16.225366 C 53.325958 15.659901 52.527043 15.063036 52.105346 15.628503 C 51.657315 16.230616 51.197879 16.824222 50.666157 17.356563 C 50.493894 17.523508 50.328161 17.697363 50.149393 17.857308 C 50.036891 17.957965 49.896384 18.027054 49.793343 18.137394 C 49.727493 18.207904 49.775462 18.472925 49.700842 18.411796 C 49.502371 18.249211 49.528602 17.613008 49.520491 17.512626 C 49.493521 15.637376 49.536986 13.761985 49.625394 11.88868 C 49.654023 11.51491 49.38687 11.318097 49.122066 11.321273 z M 44.884598 12.557373 C 44.798495 12.560229 44.705747 12.586375 44.610713 12.642122 C 43.417223 13.550268 42.797271 14.916386 42.515234 16.367476 C 42.442054 16.743974 42.423841 17.129207 42.378291 17.510042 C 42.435511 18.67707 42.413119 20.159726 43.402518 20.995617 C 43.575952 21.142141 43.778436 21.276374 44.000931 21.321179 C 44.258463 21.373039 44.525214 21.29019 44.787447 21.27467 C 45.02843 21.113207 45.296899 20.986891 45.5104 20.790462 C 46.404107 19.96822 46.884373 18.628532 46.927884 17.442863 C 46.938784 17.145917 46.896529 16.849209 46.880859 16.552478 C 46.606048 15.242039 46.033709 14.382145 45.012239 13.593485 C 45.045798 13.563096 45.080048 13.532988 45.115075 13.503052 C 45.628257 13.202017 45.349557 12.541951 44.884598 12.557373 z M 42.754496 12.971301 C 42.683021 12.972876 42.606273 12.989624 42.525569 13.025045 C 42.239983 13.150385 41.954359 13.275908 41.668774 13.401249 C 39.838092 14.204843 38.0045 15.007154 36.119242 15.676046 C 35.449361 15.895882 35.759936 16.844146 36.429817 16.624308 C 37.234604 16.339576 38.0301 16.030581 38.819852 15.707568 C 38.320833 18.365558 38.025693 21.061225 37.729996 23.748421 C 37.652826 24.449811 38.64347 24.559366 38.720634 23.857975 C 39.021124 21.12607 39.331509 18.389371 39.828576 15.685347 C 39.881243 15.53255 39.871635 15.398117 39.823925 15.288989 C 40.57495 14.970452 41.321914 14.642708 42.06875 14.314888 C 42.354316 14.189555 42.639976 14.064535 42.925545 13.939201 C 43.490469 13.69126 43.25482 12.960274 42.754496 12.971301 z M 54.374458 14.009997 C 54.391709 14.018173 54.408474 14.026869 54.422517 14.036869 C 54.431717 14.080299 54.474156 14.204249 54.449906 14.167094 C 54.421195 14.123118 54.396231 14.069923 54.374458 14.009997 z M 44.352331 14.34331 C 45.133316 14.90415 45.670886 15.657703 45.885571 16.612939 C 45.902511 16.854333 45.938894 17.094954 45.936214 17.336926 C 45.923794 18.460613 45.416635 19.519366 44.613297 20.292301 C 44.550727 20.334431 44.500891 20.412436 44.425712 20.418392 C 43.495819 20.492062 43.373477 18.152582 43.368929 17.62373 C 43.502887 16.394054 43.699951 15.286627 44.352331 14.34331 z M 36.449971 17.16226 C 36.410736 17.162734 36.369653 17.166966 36.326464 17.175696 C 34.902764 17.530239 33.552828 18.123444 32.207336 18.697567 C 31.312056 19.154451 29.385605 19.793986 28.995646 20.843172 C 28.937216 21.000392 28.951847 21.175532 28.930017 21.34185 C 29.062391 21.531247 29.145337 21.768109 29.327409 21.91029 C 29.589312 22.114812 30.303681 22.209463 30.610018 22.247737 C 31.278596 22.331267 31.957608 22.351875 32.629533 22.396049 C 32.696412 22.394949 34.0614 22.465187 34.000508 22.689571 C 33.988778 22.732831 33.902525 22.656226 33.86615 22.682336 C 33.80158 22.728776 33.778401 22.815017 33.734375 22.88129 C 32.869263 24.368713 31.59473 25.572353 30.383675 26.77666 C 30.210316 26.945294 30.036652 27.113939 29.863293 27.282572 C 29.357758 27.774376 30.052809 28.490094 30.558341 27.998291 C 30.734321 27.827077 30.910497 27.655841 31.086474 27.484627 C 32.409782 26.168263 33.818455 24.849986 34.686771 23.175329 C 34.736971 22.935864 34.859662 22.700715 34.837666 22.457027 C 34.744067 21.420156 33.428038 21.460968 32.694645 21.400244 C 32.050897 21.357924 31.402737 21.333965 30.76143 21.261234 C 30.586781 21.241434 30.414046 21.20993 30.240014 21.18527 C 30.150984 21.17265 30.052807 21.109453 29.97233 21.149613 C 29.91347 21.178983 29.941975 21.277266 29.926855 21.341333 C 29.693304 21.328003 30.030293 21.023159 30.307194 20.816817 C 31.003149 20.298197 31.816837 19.976516 32.59801 19.61534 C 33.881354 19.06754 35.167791 18.500764 36.523352 18.15393 C 37.171183 18.02299 37.038503 17.155149 36.449971 17.16226 z M 26.178247 19.700089 C 26.17406 19.829036 26.167905 19.957978 26.156543 20.086629 C 25.86267 23.414632 24.508945 26.740939 22.557796 29.433345 C 22.087508 30.082298 21.534601 30.66703 21.023006 31.283878 C 19.742441 32.462729 19.06758 33.217593 17.574121 34.094043 C 17.111195 34.365714 16.627471 34.637929 16.101859 34.746199 C 15.8408 34.799979 15.475265 34.778029 15.325163 34.55758 C 15.174692 34.336586 15.351182 34.017146 15.432133 33.76228 C 15.663752 33.033057 15.982664 32.334674 16.257922 31.620809 C 16.891599 30.546524 17.446953 29.421607 18.159098 28.39775 C 20.454959 25.09697 23.182278 22.251405 26.178247 19.700089 z " />
  </g>
</svg>
