<?xml version="1.0" encoding="UTF-8" standalone="no"?>
<!-- Created with Inkscape (http://www.inkscape.org/) -->

<svg
   xmlns:dc="http://purl.org/dc/elements/1.1/"
   xmlns:cc="http://creativecommons.org/ns#"
   xmlns:rdf="http://www.w3.org/1999/02/22-rdf-syntax-ns#"
   xmlns:svg="http://www.w3.org/2000/svg"
   xmlns="http://www.w3.org/2000/svg"
   xmlns:sodipodi="http://sodipodi.sourceforge.net/DTD/sodipodi-0.dtd"
   xmlns:inkscape="http://www.inkscape.org/namespaces/inkscape"
   width="100"
   height="100"
   viewBox="0 0 26.458333 26.458334"
   version="1.1"
   id="tjstollLogo"
   inkscape:version="0.92.2 (5c3e80d, 2017-08-06)"
   sodipodi:docname="logo.svg">
  <defs
     id="defs4491" />
  <sodipodi:namedview
     id="base"
     pagecolor="#ffffff"
     bordercolor="#666666"
     borderopacity="1.0"
     inkscape:pageopacity="0.0"
     inkscape:pageshadow="2"
     inkscape:zoom="8"
     inkscape:cx="16.882804"
     inkscape:cy="61.700759"
     inkscape:document-units="px"
     inkscape:current-layer="layer1"
     showgrid="false"
     inkscape:window-width="1920"
     inkscape:window-height="1057"
     inkscape:window-x="1358"
     inkscape:window-y="-8"
     inkscape:window-maximized="1"
     units="px"
     inkscape:showpageshadow="false"
     borderlayer="true"
     inkscape:object-nodes="false" />
  <metadata
     id="metadata4494">
    <rdf:RDF>
      <cc:Work
         rdf:about="">
        <dc:format>image/svg+xml</dc:format>
        <dc:type
           rdf:resource="http://purl.org/dc/dcmitype/StillImage" />
        <dc:title />
      </cc:Work>
    </rdf:RDF>
  </metadata>
  <g
     inkscape:label="Layer 1"
     inkscape:groupmode="layer"
     id="layer1"
     transform="translate(0,-270.54165)">
    <path
       style="fill:#ff00ff;stroke:none;stroke-width:0.26458332px;stroke-linecap:butt;stroke-linejoin:miter;stroke-opacity:1"
       d="m -39.209748,283.38418 c 0.905291,0.57756 1.72626,-1.48928 2.767583,-1.13858 1.041323,0.3507 -1.401485,6.61934 0.97419,6.84479 2.457178,0.23318 1.491964,-2.13191 2.887552,-2.11204 1.970467,0.0281 -0.722646,4.91668 2.77188,4.96514 4.058142,0.0563 0.693767,-5.84538 2.996743,-7.44836 2.29932,-1.60043 -0.70002,3.60002 2.101424,3.61304 2.613451,0.0122 -0.24318,-7.07777 2.338608,-7.48354 1.28195,-0.20148 0.948823,3.24173 2.245064,3.1805 1.723019,-0.0814 0.852899,-4.35412 2.572469,-4.49012 0.718477,-0.0568 0.648522,1.5483 1.356393,1.68379 0.404557,0.0774 0.976443,-0.20828 1.07576,-0.60803 0.334741,-1.34732 -2.245064,-3.50792 -2.245064,-3.50792 l -4.186109,-3.04019 -5.004622,-1.09914 -4.092564,0.65481 -4.162723,1.68379 c 0,0 -1.700957,2.09011 -2.432153,3.22728 -0.731196,1.13717 -1.941045,3.57808 -1.941045,3.57808 0,0 -0.444032,1.22834 -0.02339,1.4967 z"
       id="path3707"
       inkscape:connector-curvature="0"
       sodipodi:nodetypes="szssssssssssccccczcs" />
    <path
       inkscape:connector-curvature="0"
       id="path3679"
       d="m -27.625416,298.49979 c -1.224976,-0.0632 -2.346164,-0.27332 -3.4774,-0.65179 -2.399943,-0.80295 -4.539928,-2.29235 -6.114207,-4.25541 -1.632102,-2.03517 -2.574227,-4.33604 -2.871653,-7.01319 -0.06181,-0.55638 -0.05248,-2.07646 0.01624,-2.64586 0.271648,-2.25072 0.933692,-4.0768 2.120764,-5.84959 1.291949,-1.92943 3.074968,-3.51096 5.097609,-4.52156 0.702441,-0.35097 2.308694,-0.93696 3.156766,-1.15164 1.543042,-0.39061 3.288202,-0.44537 5.023358,-0.15762 1.306187,0.2166 2.414966,0.58358 3.716221,1.22997 1.360149,0.67565 2.452844,1.47086 3.524001,2.5646 1.949051,1.99013 3.216495,4.50861 3.615674,7.18453 0.123331,0.82675 0.1464,1.15579 0.1464,2.088 0,0.96683 -0.02559,1.30982 -0.160536,2.15175 -0.6202,3.86942 -3.135143,7.4058 -6.66981,9.37873 -1.486458,0.8297 -3.035856,1.33861 -4.737185,1.55597 -0.422788,0.054 -1.654177,0.13476 -1.853509,0.12154 -0.03524,-0.002 -0.274968,-0.0151 -0.532733,-0.0284 z m 2.2401,-0.93555 c 3.782007,-0.49829 6.966892,-2.51603 8.961075,-5.67717 0.268806,-0.42611 0.702506,-1.25847 0.899499,-1.72634 0.444553,-1.05582 0.782365,-2.37771 0.915222,-3.58133 0.05243,-0.47498 0.05269,-1.98372 5.3e-4,-2.43866 -0.176602,-1.53709 -0.673823,-3.16469 -1.358519,-4.44696 -0.489763,-0.91721 -1.114653,-1.81311 -1.713839,-2.4571 l -0.176906,-0.19013 -0.100192,0.076 c -0.128426,0.0975 -0.385839,0.225 -1.237163,0.61291 -2.652424,1.20858 -5.253362,2.79745 -6.855819,4.18809 -1.306502,1.1338 -2.537489,2.5128 -3.535707,3.96083 l -0.279052,0.4048 -0.03154,0.3762 c -0.141571,1.68879 -0.447436,3.07836 -0.840066,3.81651 -0.149013,0.28015 -0.47821,0.5982 -0.707524,0.68357 -0.490442,0.18259 -0.94661,0.005 -1.159226,-0.45186 -0.17747,-0.38116 -0.116757,-1.02536 0.16731,-1.77527 0.253123,-0.66823 0.684364,-1.49165 1.317963,-2.51656 l 0.304346,-0.49231 -0.02087,-0.78417 c -0.01148,-0.4313 -0.03578,-0.94135 -0.05399,-1.13346 -0.03297,-0.34778 -0.143418,-0.94742 -0.189799,-1.03046 -0.03614,-0.0647 -0.192484,0.20331 -0.834351,1.4303 -0.650552,1.24358 -1.009055,1.71141 -1.493251,1.9486 -0.183218,0.0897 -0.223318,0.0974 -0.45124,0.0864 -0.455079,-0.0221 -0.753577,-0.25468 -0.938206,-0.73107 -0.09517,-0.24557 -0.1911,-0.76028 -0.192359,-1.03213 l -5.82e-4,-0.12672 -0.232264,0.22578 c -0.295857,0.28759 -0.362694,0.33049 -0.514905,0.33049 -0.09856,0 -0.146725,-0.0224 -0.233144,-0.10839 -0.09286,-0.0924 -0.108924,-0.13039 -0.108924,-0.25768 0,-0.14654 0.0066,-0.15614 0.356083,-0.5212 0.195846,-0.20455 0.444957,-0.45798 0.553579,-0.56317 l 0.197495,-0.19127 0.05581,-0.46368 c 0.04936,-0.41009 0.257938,-1.53218 0.344573,-1.85373 0.0633,-0.23496 0.31076,-0.32315 0.467925,-0.16676 0.09679,0.0963 0.0965,0.10442 -0.03399,0.95403 -0.04578,0.29806 -0.08327,0.59914 -0.0833,0.66906 l -6.4e-5,0.12714 0.504573,-0.49472 c 0.785593,-0.77026 1.370179,-1.32815 2.179059,-2.07956 0.715448,-0.6646 0.750621,-0.69246 0.874447,-0.69246 0.178313,0 0.286286,0.10833 0.286286,0.28722 0,0.1242 -0.02273,0.1549 -0.455402,0.6151 -0.250471,0.2664 -1.130604,1.16006 -1.95585,1.9859 l -1.500449,1.50152 0.03545,0.40966 c 0.06894,0.79659 0.227039,1.32116 0.398184,1.32116 0.0524,0 0.245,-0.15145 0.347625,-0.27336 0.176905,-0.21013 0.395404,-0.59349 0.925249,-1.62338 0.891873,-1.73356 1.008187,-1.87811 1.505621,-1.87109 0.360108,0.005 0.654217,0.20969 0.820928,0.57112 0.189718,0.41131 0.261841,0.79302 0.379559,2.00881 l 0.01616,0.16691 0.307134,-0.39006 c 2.003394,-2.54428 4.104667,-4.2584 7.521869,-6.136 1.027581,-0.56461 2.531499,-1.29566 3.280801,-1.59477 l 0.205918,-0.0822 -0.157864,-0.14315 c -0.927465,-0.84098 -2.300131,-1.69866 -3.503597,-2.18913 -1.072858,-0.43723 -2.438418,-0.76897 -3.622177,-0.87992 -0.513416,-0.0481 -1.749063,-0.0481 -2.306619,1e-4 -1.743949,0.15064 -2.797445,0.41998 -4.118407,1.05291 -1.363298,0.65323 -2.455983,1.43755 -3.539798,2.54085 -0.661677,0.67358 -1.102089,1.22459 -1.590755,1.99025 -1.826006,2.86103 -2.387953,6.36151 -1.547782,9.64143 0.448164,1.74958 1.259565,3.34436 2.423175,4.76268 0.31061,0.3786 1.242669,1.31219 1.62991,1.63258 1.864649,1.54278 4.230094,2.54601 6.599493,2.79899 0.1762,0.0188 0.370819,0.04 0.432491,0.047 0.293531,0.0336 2.086806,-0.008 2.46022,-0.0575 z m -6.180221,-7.63201 c 0.04999,-0.0995 0.135879,-0.31726 0.190862,-0.48382 0.09376,-0.28404 0.261428,-0.94173 0.261428,-1.02548 0,-0.0638 -0.277177,0.52477 -0.395476,0.83975 -0.101245,0.26958 -0.213214,0.71058 -0.213214,0.83977 0,0.0861 0.06106,0.0196 0.1564,-0.17022 z"
       style="fill:#00ffff;stroke-width:1" />
    <path
       style="fill:#828282;;fill-opacity:1;stroke:none;stroke-width:0;stroke-miterlimit:4;stroke-dasharray:none"
       d="M 49.998047,-0.00195312 C 22.407498,-0.00195312 0,22.41144 0,50.001953 0,77.592504 22.407498,100 49.998047,100 c 27.590547,0 50.003903,-22.407496 50.003903,-49.998047 0,-27.590513 -22.413356,-50.00390612 -50.003903,-50.00390612 z m 0,4.00000002 c 12.119145,0 23.127501,4.6812123 31.339844,12.3261721 -0.252412,0.08749 -0.529297,0.222656 -0.529297,0.222656 -2.832008,1.130494 -8.51662,3.893385 -12.400391,6.027344 -12.915409,7.096441 -20.857808,13.57523 -28.429687,23.191406 l -1.160157,1.474609 -0.06055,-0.630859 c -0.444915,-4.595112 -0.718501,-6.037239 -1.435546,-7.591797 -0.630089,-1.366035 -1.740525,-2.141258 -3.101563,-2.160156 -1.880065,-0.02653 -2.320548,0.520228 -5.691406,7.072266 -2.002564,3.892494 -2.827477,5.342526 -3.496094,6.136718 -0.387874,0.460762 -1.116406,1.033203 -1.314453,1.033203 -0.646847,0 -1.245299,-1.983406 -1.505859,-4.99414 L 22.080078,44.556641 27.75,38.882812 c 3.11904,-3.121282 6.445916,-6.498993 7.392578,-7.505859 1.635296,-1.739338 1.720703,-1.856754 1.720703,-2.326172 0,-0.676119 -0.408092,-1.083984 -1.082031,-1.083984 -0.468004,0 -0.600632,0.105313 -3.304688,2.617187 -3.057181,2.839975 -5.265207,4.948156 -8.234374,7.859375 L 22.333984,40.3125 v -0.480469 c 1.14e-4,-0.264264 0.141427,-1.402771 0.314454,-2.529297 0.493187,-3.211124 0.494726,-3.2415 0.128906,-3.605468 -0.59401,-0.591081 -1.528334,-0.257179 -1.767578,0.630859 -0.32744,1.215307 -1.116177,5.455913 -1.302735,7.005859 L 19.496094,43.085938 18.75,43.808594 c -0.41054,0.397568 -1.351592,1.355804 -2.091797,2.128906 -1.32088,1.379754 -1.347656,1.416851 -1.347656,1.970703 0,0.481096 0.06114,0.623428 0.412109,0.972656 0.326623,0.325002 0.508349,0.410157 0.88086,0.410157 0.575285,0 0.829066,-0.161093 1.947265,-1.248047 l 0.876953,-0.853516 0.002,0.478516 c 0.0048,1.027464 0.368817,2.972252 0.728515,3.90039 0.697811,1.800529 1.824938,2.680145 3.544922,2.763672 0.861437,0.04158 1.012601,0.01285 1.705078,-0.326172 1.830032,-0.896466 3.185752,-2.665089 5.644531,-7.365234 2.425954,-4.637442 3.017705,-5.650785 3.154297,-5.40625 0.175299,0.313852 0.592186,2.580087 0.716797,3.894531 0.06882,0.726085 0.159736,2.655049 0.203125,4.285156 l 0.08008,2.962891 -1.15039,1.861328 c -2.394705,3.873676 -4.025737,6.986125 -4.982422,9.511719 -1.073639,2.834305 -1.301612,5.26838 -0.63086,6.708984 0.803588,1.726715 2.527221,2.397136 4.38086,1.707032 0.866698,-0.322659 2.110629,-1.523197 2.673828,-2.582032 1.483956,-2.789858 2.64071,-8.042953 3.175781,-14.425781 l 0.119141,-1.421875 1.054687,-1.529297 c 3.772793,-5.472869 8.425321,-10.685475 13.363282,-14.970703 6.056527,-5.255962 15.885246,-11.260263 25.910156,-15.828125 3.217602,-1.466116 4.192345,-1.947902 4.677734,-2.316406 0,0 0.08902,-0.04694 0.181641,-0.109375 7.467276,8.176895 12.021484,19.059524 12.021484,31.019531 C 96.001953,75.430766 75.426833,96 49.998047,96 24.569258,96 4.0019527,75.430766 4.0019531,50.001953 4.0019531,24.573178 24.569258,3.9980469 49.998047,3.9980469 Z M 34.078125,61.800781 c 0,0.316536 -0.63196,2.803416 -0.986328,3.876953 -0.20781,0.629518 -0.533718,1.452062 -0.722656,1.828125 -0.360341,0.71743 -0.589844,0.967993 -0.589844,0.642579 0,-0.488278 0.422029,-2.154944 0.804687,-3.173829 0.447115,-1.190475 1.494141,-3.414962 1.494141,-3.173828 z"
       transform="matrix(0.26458333,0,0,0.26458333,0,270.54165)"
       id="path5053"
       inkscape:connector-curvature="0" />
  </g>
</svg>
